<svg xmlns="http://www.w3.org/2000/svg" viewBox="0 0 54.94 64.82"><defs><style>.cls-1{fill:#ff4d4d;}.cls-2{fill:#0080ff;}</style></defs><g><g><path class="cls-1" d="M4.66,42.17,8.23,38.6l.36.1a12.06,12.06,0,0,0,1.4,0,4.47,4.47,0,0,0,4-1.91q1.29-1.91,2.4-7.45L20.19,10h-6.1Q4.81,10,4.8,17.37A12.69,12.69,0,0,0,5,19.52L0,21.86A17,17,0,0,1,6.15,10.62Q11.3,6.47,19.08,6.47H29.31q6.93,0,9.17-.92t3-4.08L45.14,0a14.09,14.09,0,0,1-6.51,7.26,21.6,21.6,0,0,1-11,2.78H25.26L21.91,26.85A20,20,0,0,1,19.27,34a18.43,18.43,0,0,1-5.49,5l9.31.2-3.35,3.57Z"/><path class="cls-2" d="M6.37,61.9l3.26-3.29a6.9,6.9,0,0,0,6,3.53,9.59,9.59,0,0,0,6.67-3q3.14-3,7.47-10.48l10.4-18a38.89,38.89,0,0,0-4.51-.32c-3.36,0-6,.84-7.78,2.53S25.14,37,25.14,40.15l-4.73,2.34A15.71,15.71,0,0,1,22.94,35a13.15,13.15,0,0,1,5.41-4.71,27.2,27.2,0,0,1,9-1.81l3.57-.27,4.92-.89.32,8L47.58,52q.48,5.82,1.36,7.67a3.21,3.21,0,0,0,3.17,1.84c.28,0,1.22,0,2.83-.14L54.62,63,43.55,64.82l-1-11.9H29.41q-3.81,6.61-7.21,9.25a12.84,12.84,0,0,1-8.11,2.65A11.2,11.2,0,0,1,6.37,61.9ZM30.45,51.14H42.39L40.85,33Z"/></g></g></svg>